<?xml version="1.0"?>
<svg xmlns="http://www.w3.org/2000/svg" viewBox="0 0 512 512" width="512" height="512"><g id="outline"><path d="M166.3,448H160a16.015,16.015,0,0,0-16,16v16a16.016,16.016,0,0,0,16,16H352a16.016,16.016,0,0,0,16-16V464a16.015,16.015,0,0,0-16-16H345.69L280,418.8V368a32.038,32.038,0,0,0,32-32V285.813A95.854,95.854,0,0,0,352,208V112a96,96,0,0,0-192,0v96a95.854,95.854,0,0,0,40,77.814V336a32.038,32.038,0,0,0,32,32v50.8Zm185.706,32H160V464H352ZM205.7,448l36-16h28.6l36,16ZM179.684,232H240a8,8,0,0,0,0-16H176.4c-.263-2.632-.406-5.3-.406-8v-8h64a8,8,0,0,0,0-16H176V168h64a8,8,0,0,0,0-16H176V136h64a8,8,0,0,0,0-16H176v-8c0-2.7.143-5.368.406-8H240a8,8,0,0,0,0-16H179.684A80.321,80.321,0,0,1,216,42.823V64a8,8,0,0,0,16,0V35.688A79.421,79.421,0,0,1,248,32.4V64a8,8,0,1,0,16,0V32.4a79.393,79.393,0,0,1,16,3.284V64a8,8,0,0,0,16,0V42.823A80.323,80.323,0,0,1,332.307,88H272a8,8,0,0,0,0,16H335.59c.263,2.632.406,5.3.406,8v8H272a8,8,0,0,0,0,16h64v16H272a8,8,0,0,0,0,16h64v16H272a8,8,0,0,0,0,16h64v8c0,2.7-.143,5.368-.406,8H272a8,8,0,0,0,0,16h60.312A80.325,80.325,0,0,1,296,277.176V256a8,8,0,0,0-16,0V284.31a79.324,79.324,0,0,1-16,3.284V256a8,8,0,0,0-16,0v31.6a79.352,79.352,0,0,1-16-3.284V256a8,8,0,0,0-16,0v21.177A80.323,80.323,0,0,1,179.684,232ZM216,336V295.156a94.889,94.889,0,0,0,80,0V336a16.015,16.015,0,0,1-16,16H232A16.015,16.015,0,0,1,216,336Zm48,32v48H248V368Z"/></g></svg>
